<?xml version="1.0" standalone="no"?>
<!DOCTYPE svg PUBLIC "-//W3C//DTD SVG 20010904//EN"
 "http://www.w3.org/TR/2001/REC-SVG-20010904/DTD/svg10.dtd">
<svg version="1.0" xmlns="http://www.w3.org/2000/svg"
 width="640.000000pt" height="854.000000pt" viewBox="0 0 640.000000 854.000000"
 preserveAspectRatio="xMidYMid meet">

<g transform="translate(0.000000,854.000000) scale(0.100000,-0.100000)"
fill="#000000" stroke="none">
<path d="M958 6950 c-49 -9 -95 -24 -104 -31 -15 -12 -14 -14 7 -20 13 -3 39
1 57 8 32 13 108 12 146 -3 14 -6 17 -4 11 6 -6 10 0 11 28 6 42 -8 58 8 32
32 -10 10 -15 12 -12 6 12 -21 -115 -34 -128 -14 -4 6 8 10 29 10 19 0 38 5
41 10 8 13 -2 12 -107 -10z"/>
<path d="M4486 6929 c3 -5 -3 -9 -13 -9 -10 0 -28 -7 -40 -15 -20 -14 -22 -23
-21 -129 l1 -114 85 -8 c161 -13 840 10 859 30 4 4 8 46 10 94 2 48 5 99 8
115 2 15 0 27 -6 27 -6 0 -7 -6 -3 -12 5 -8 0 -7 -10 2 -24 19 -116 20 -135 1
-11 -10 -30 -11 -75 -6 -33 3 -63 8 -67 10 -3 3 -100 7 -215 10 -115 3 -248 8
-297 10 -51 2 -85 0 -81 -6z m144 -33 c0 -3 -4 -8 -10 -11 -5 -3 -10 -1 -10 4
0 6 5 11 10 11 6 0 10 -2 10 -4z m43 -3 c-7 -2 -19 -2 -25 0 -7 3 -2 5 12 5
14 0 19 -2 13 -5z m-76 -9 c-3 -3 -12 -4 -19 -1 -8 3 -5 6 6 6 11 1 17 -2 13
-5z m486 -81 c-7 -2 -21 -2 -30 0 -10 3 -4 5 12 5 17 0 24 -2 18 -5z m-13 -32
c0 -12 -146 -34 -172 -25 -17 6 4 11 72 20 52 6 96 12 98 12 1 1 2 -2 2 -7z
m-407 -91 c18 0 27 -4 22 -9 -6 -4 -55 -6 -110 -3 -68 3 -94 8 -80 13 11 5 47
7 79 4 32 -3 73 -5 89 -5z"/>
<path d="M989 6873 c-1 -5 -1 -11 0 -15 0 -5 -3 -8 -9 -8 -5 0 -10 5 -10 10 0
6 -4 10 -10 10 -16 0 -12 -17 6 -24 9 -4 22 -1 30 5 7 6 28 10 46 9 47 -3 56
0 33 10 -25 11 -85 13 -86 3z"/>
<path d="M1223 6814 c-1 -39 40 -133 51 -116 17 27 13 87 -6 107 -19 20 -19
20 -13 0 3 -11 -2 -5 -12 13 l-19 33 -1 -37z"/>
<path d="M1032 6833 c-18 -7 32 -33 63 -33 13 0 26 -7 29 -16 3 -8 10 -13 15
-9 5 3 13 -4 16 -16 4 -11 9 -18 11 -16 3 3 -2 21 -10 41 -19 46 -75 69 -124
49z"/>
<path d="M1030 6600 c-24 -15 -7 -18 20 -3 14 7 18 13 10 13 -8 0 -22 -4 -30
-10z"/>
<path d="M1096 6575 c8 -37 14 -45 14 -19 0 10 -5 26 -10 34 -8 11 -9 7 -4
-15z"/>
<path d="M1225 6570 c3 -5 8 -10 11 -10 2 0 4 5 4 10 0 6 -5 10 -11 10 -5 0
-7 -4 -4 -10z"/>
<path d="M1158 6523 c7 -3 16 -2 19 1 4 3 -2 6 -13 5 -11 0 -14 -3 -6 -6z"/>
<path d="M3048 5603 c6 -2 18 -2 25 0 6 3 1 5 -13 5 -14 0 -19 -2 -12 -5z"/>
<path d="M2790 5590 c0 -5 5 -10 11 -10 5 0 7 5 4 10 -3 6 -8 10 -11 10 -2 0
-4 -4 -4 -10z"/>
<path d="M2740 5579 c0 -5 5 -7 10 -4 6 3 10 8 10 11 0 2 -4 4 -10 4 -5 0 -10
-5 -10 -11z"/>
<path d="M3250 5509 c0 -5 5 -7 10 -4 6 3 10 8 10 11 0 2 -4 4 -10 4 -5 0 -10
-5 -10 -11z"/>
<path d="M2870 5451 c0 -5 5 -13 10 -16 6 -3 10 -2 10 4 0 5 -4 13 -10 16 -5
3 -10 2 -10 -4z"/>
<path d="M2930 5450 c0 -5 5 -10 10 -10 6 0 10 5 10 10 0 6 -4 10 -10 10 -5 0
-10 -4 -10 -10z"/>
<path d="M3422 5301 c-69 -75 -108 -142 -97 -168 5 -10 7 -23 6 -30 -3 -20 36
-25 74 -8 53 22 65 19 101 -20 33 -37 52 -41 117 -26 21 5 37 5 37 0 0 -5 9
-18 20 -29 25 -25 21 -25 -90 0 -50 11 -122 25 -161 30 -74 11 -117 37 -169
103 -20 25 -20 28 -6 49 17 24 22 118 7 118 -4 0 -6 -10 -4 -23 3 -13 -4 -48
-15 -80 -10 -31 -15 -54 -11 -51 5 3 11 -6 14 -19 4 -15 -10 -65 -43 -148 -27
-68 -52 -137 -56 -153 -4 -17 -13 -35 -20 -40 -7 -6 -46 -51 -87 -101 -99
-120 -199 -225 -214 -225 -6 0 -20 -9 -30 -20 -27 -30 -37 -24 -31 18 3 20 5
40 6 43 0 3 9 16 20 29 11 13 21 31 21 42 2 24 2 26 28 82 21 49 23 77 1 37
-11 -22 -36 -30 -25 -8 4 6 -1 3 -10 -8 -9 -11 -19 -31 -22 -45 -3 -14 -12
-34 -19 -45 -6 -11 -15 -35 -19 -53 -5 -26 -10 -31 -19 -22 -17 17 -15 302 3
324 8 9 11 19 7 23 -3 3 -21 -11 -40 -33 -19 -21 -38 -36 -42 -31 -4 4 4 41
19 82 14 41 24 75 21 75 -13 0 -372 -164 -396 -181 -15 -11 -35 -34 -45 -50
-16 -27 -22 -30 -55 -26 -20 3 -41 0 -47 -6 -18 -18 -14 -152 5 -168 14 -11
18 -11 29 4 15 21 25 22 25 3 0 -24 -178 -87 -280 -100 -163 -21 -264 -38
-280 -49 -16 -9 -26 -8 -55 7 -28 15 -37 17 -50 6 -21 -18 -20 -21 28 -91 61
-90 88 -101 245 -103 120 -1 133 1 230 33 56 19 104 32 106 30 9 -9 -7 -60
-18 -56 -7 3 -37 -1 -67 -8 -30 -8 -80 -19 -111 -25 -38 -8 -58 -16 -58 -26 0
-10 -13 -14 -49 -14 -41 0 -55 5 -83 30 -18 17 -36 30 -39 30 -4 0 -21 -13
-37 -30 -24 -24 -42 -31 -93 -37 l-64 -8 0 -40 c0 -30 4 -40 15 -39 10 1 15
-8 15 -24 0 -14 6 -27 13 -30 9 -3 11 3 6 22 -4 16 -2 26 4 26 6 0 12 -10 14
-22 2 -13 11 -24 23 -26 11 -2 28 -11 37 -19 16 -14 20 -14 44 1 25 17 61 15
49 -3 -3 -5 -1 -12 5 -16 6 -4 8 -9 6 -13 -2 -4 3 -16 11 -27 15 -19 15 -19 9
8 -4 15 -3 27 2 27 5 0 9 7 9 15 0 8 -4 15 -9 15 -12 0 -10 24 3 37 19 19 39
3 39 -31 0 -17 7 -44 15 -60 18 -34 20 -76 3 -76 -6 0 -23 10 -36 23 -24 21
-24 21 -14 1 14 -26 59 -75 91 -96 17 -12 25 -29 28 -60 2 -24 8 -55 13 -70 6
-17 5 -28 -1 -28 -19 0 -8 -23 36 -75 26 -30 43 -59 40 -67 -6 -15 78 -68 107
-68 10 0 13 -8 10 -29 -3 -23 -8 -28 -21 -23 -12 4 -14 3 -5 -9 5 -8 10 -34
10 -59 -1 -25 2 -47 6 -50 6 -5 16 -104 17 -177 1 -24 6 -33 18 -33 9 0 14 -3
10 -6 -3 -4 0 -13 8 -21 18 -18 18 -43 0 -213 -19 -178 -19 -371 1 -495 9 -55
17 -110 18 -122 2 -13 6 -26 9 -30 11 -11 8 -43 -4 -43 -6 0 -9 -7 -5 -15 3
-8 0 -15 -6 -15 -7 0 -8 -11 -3 -32 4 -18 8 -42 10 -53 7 -43 66 -238 84 -278
10 -23 26 -60 34 -83 9 -22 25 -56 36 -75 11 -19 30 -52 42 -74 12 -22 24 -42
28 -45 3 -3 15 -23 26 -45 11 -22 26 -46 33 -54 7 -7 16 -26 19 -42 3 -16 12
-29 20 -29 8 0 12 -4 9 -8 -3 -5 1 -20 9 -35 37 -72 105 -306 111 -382 3 -44
8 -82 10 -84 2 -3 192 -10 422 -17 229 -7 464 -14 522 -16 l105 -3 2 25 c0 14
2 79 3 145 1 77 5 111 10 95 7 -22 8 -20 9 15 0 29 -2 36 -9 25 -7 -11 -10 -6
-10 20 0 24 3 31 9 21 7 -11 10 -9 13 9 2 16 14 26 38 34 53 17 70 78 81 291
5 94 15 276 24 405 8 129 15 314 15 411 0 136 3 183 15 205 13 25 13 29 0 37
-12 7 -15 40 -14 195 0 129 3 180 10 163 5 -13 23 -41 40 -62 l31 -39 -25 0
c-38 0 -44 -30 -11 -56 14 -12 38 -50 53 -85 43 -103 80 -85 50 25 -8 27 -8
41 0 49 18 18 12 45 -20 90 l-31 42 30 3 c26 3 31 8 35 40 5 46 3 50 -42 70
-30 14 -33 17 -15 20 14 2 24 12 27 28 2 13 1 24 -2 24 -3 1 -22 15 -41 32
l-35 30 41 -6 c39 -6 42 -4 47 22 3 15 1 29 -6 31 -20 7 -68 66 -56 70 6 2 28
-5 50 -14 31 -15 41 -15 54 -5 17 14 20 72 5 101 -6 11 -7 19 -3 18 29 -5 36
2 17 17 -10 8 -14 13 -8 10 7 -4 13 6 16 24 3 16 0 32 -6 34 -7 3 -6 5 2 5 18
1 15 29 -5 40 -10 5 -16 11 -13 14 23 20 136 97 142 97 4 0 8 -7 8 -15 0 -8 5
-15 11 -15 6 0 9 7 6 15 -5 11 4 9 38 -7 52 -26 50 -39 -7 -34 -23 2 -52 0
-65 -5 -33 -12 -31 -58 5 -92 35 -34 71 -36 70 -4 -1 12 -6 28 -11 35 -7 9 -4
12 12 12 15 0 21 -6 21 -24 0 -31 36 -76 62 -76 16 0 19 5 16 24 -9 46 5 49
77 17 81 -37 85 -38 85 -7 0 14 -10 30 -26 41 -15 9 -23 22 -20 30 3 8 -7 23
-25 36 l-30 21 25 19 c27 21 25 34 -12 81 -12 14 -11 18 7 28 26 13 27 34 2
59 -19 19 -19 19 0 24 26 7 14 35 -20 50 l-26 11 25 4 c38 6 44 18 21 41 -26
26 -26 27 0 34 32 9 7 47 -31 47 -15 0 -36 3 -46 7 -15 5 -12 9 14 17 43 15
44 28 3 47 -36 17 -34 22 12 33 34 8 34 17 -1 58 -22 25 -29 43 -28 73 1 22 4
45 9 52 10 16 -2 41 -25 49 -18 5 -18 7 -3 24 12 13 13 23 6 43 -5 14 -15 28
-21 32 -9 6 -9 9 1 15 9 6 4 17 -20 40 -18 19 -30 39 -27 47 3 8 1 23 -4 33
-7 14 -7 25 2 39 15 25 -1 46 -48 61 -23 8 -34 18 -34 31 0 10 5 19 10 19 6 0
10 6 10 14 0 17 -39 48 -51 40 -5 -2 -2 8 6 23 20 37 19 50 -5 63 -23 12 -18
32 13 45 52 23 0 86 -83 99 -42 7 -115 -7 -138 -27 -16 -13 -24 -4 -46 55 -9
25 -24 52 -32 58 -16 14 -19 67 -5 89 8 12 16 10 50 -13 34 -24 43 -26 56 -16
19 16 19 41 0 66 -8 10 -15 29 -15 42 0 13 -8 32 -19 43 -17 18 -21 19 -62 5
-82 -26 -107 -27 -114 -6 -12 38 -32 49 -67 39 -47 -13 -58 -11 -58 10 0 32
-36 51 -73 39 -18 -5 -39 -12 -47 -14 -9 -3 -24 10 -38 32 -22 34 -22 37 -7
54 16 18 16 20 -4 41 l-21 22 -58 -62z m368 -310 c0 -17 -4 -19 -32 -10 -18 5
-35 9 -38 10 -11 1 36 18 53 18 10 1 17 -6 17 -18z m-550 -361 c0 -5 -4 -10
-10 -10 -5 0 -10 5 -10 10 0 6 5 10 10 10 6 0 10 -4 10 -10z m880 -112 c15
-13 36 -28 46 -34 16 -10 15 -12 -14 -26 l-32 -16 -20 45 c-28 64 -26 67 20
31z m-1957 -92 c9 -7 17 -25 17 -39 0 -23 -9 -28 -87 -57 -165 -59 -198 -65
-317 -54 -120 12 -151 27 -118 58 11 9 47 21 82 27 55 9 64 8 75 -8 13 -17 15
-17 35 5 25 26 84 31 94 7 8 -21 23 -19 30 3 4 10 23 24 43 30 32 10 38 9 50
-8 19 -27 31 -25 39 8 6 24 21 42 34 42 3 -1 13 -7 23 -14z m1345 8 c-8 -8
-118 -33 -145 -34 -34 0 -28 16 10 28 34 11 144 16 135 6z m736 -32 c8 -13
-11 -35 -23 -28 -6 4 -11 2 -11 -4 0 -6 17 -21 38 -33 l37 -22 -30 -3 c-16 -2
-42 -13 -58 -24 -15 -11 -29 -19 -31 -17 -5 8 -36 117 -36 127 0 14 106 17
114 4z m56 -168 c0 -3 -10 -14 -22 -24 -19 -15 -21 -21 -11 -42 16 -35 4 -50
-27 -35 -15 8 -31 30 -42 58 l-17 46 60 2 c32 1 59 -1 59 -5z m-2077 -91 c4
-3 2 -12 -4 -20 -12 -14 -4 -17 32 -14 9 1 21 -5 28 -13 9 -11 8 -17 -3 -29
-8 -8 -12 -17 -9 -21 4 -3 2 -6 -3 -7 -41 -3 -75 -11 -99 -23 -16 -8 -33 -12
-39 -9 -6 4 -6 8 2 11 16 5 5 22 -14 22 -8 0 -14 -9 -14 -21 0 -12 -5 -19 -12
-16 -7 2 -13 12 -13 23 0 13 -6 18 -21 16 -11 -1 -31 2 -45 7 -23 9 -23 10 8
10 33 1 58 21 27 21 -39 0 5 20 76 35 41 9 77 20 78 25 4 12 16 13 25 3z m105
-10 c-10 -2 -28 -2 -40 0 -13 2 -5 4 17 4 22 1 32 -1 23 -4z m-398 -28 c11
-13 2 -15 -74 -15 -79 0 -97 5 -79 23 3 4 37 7 73 7 48 0 71 -4 80 -15z m-321
1 c-12 -10 -59 -15 -59 -6 0 5 14 10 32 10 17 0 29 -2 27 -4z m698 -28 c-3 -8
-6 -5 -6 6 -1 11 2 17 5 13 3 -3 4 -12 1 -19z m102 6 c17 -4 31 -11 31 -16 0
-11 -60 -1 -74 13 -12 11 -1 11 43 3z m-649 -44 c0 -5 -4 -10 -10 -10 -5 0
-10 5 -10 10 0 6 5 10 10 10 6 0 10 -4 10 -10z m210 0 c0 -5 -4 -10 -10 -10
-5 0 -10 5 -10 10 0 6 5 10 10 10 6 0 10 -4 10 -10z m-40 -55 c4 -41 8 -49 23
-47 9 2 17 -2 17 -8 0 -5 5 -10 10 -10 6 0 10 19 10 43 0 50 12 72 34 64 10
-4 16 -20 17 -44 1 -21 5 -51 9 -68 7 -28 8 -28 9 -5 2 36 16 54 37 46 10 -4
21 -1 25 6 5 8 18 4 48 -16 23 -16 41 -33 41 -38 0 -10 -9 -5 -52 24 -34 23
-40 23 -36 -4 2 -13 9 -22 17 -20 26 6 50 -9 60 -39 12 -35 4 -62 -16 -55 -15
6 -69 -19 -88 -40 -14 -16 -92 -27 -100 -14 -3 5 -23 10 -43 11 -22 0 -31 3
-22 7 8 4 16 21 18 37 2 17 -1 25 -5 19 -4 -6 -16 -10 -26 -8 -23 3 -35 14
-16 14 8 0 4 7 -9 16 -21 14 -22 22 -19 89 5 81 11 98 35 93 12 -2 18 -17 22
-53z m2403 31 c20 -16 22 -26 3 -26 -7 0 -25 -9 -40 -21 l-26 -20 -10 27 c-6
15 -9 33 -6 41 7 17 56 16 79 -1z m-1983 -15 c0 -11 -4 -23 -10 -26 -6 -4 -10
5 -10 19 0 14 5 26 10 26 6 0 10 -9 10 -19z m-385 -30 c3 -5 1 -12 -5 -16 -5
-3 -10 1 -10 9 0 18 6 21 15 7z m2395 -41 c0 -5 -5 -10 -11 -10 -5 0 -7 5 -4
10 3 6 8 10 11 10 2 0 4 -4 4 -10z m-19 -140 c13 -10 22 -20 19 -20 -36 -8
-50 -8 -50 -1 0 5 -3 16 -6 25 -8 22 9 20 37 -4z m-2150 -79 c-30 -100 -39
-103 -103 -36 -29 31 -55 61 -57 67 -3 10 82 -35 104 -54 17 -15 22 -9 45 55
30 81 38 57 11 -32z m-183 -58 c7 -12 24 -17 56 -18 54 -2 64 -9 50 -33 -16
-26 -80 -28 -95 -4 -7 11 -19 18 -28 15 -13 -4 -13 -3 -2 5 10 7 11 14 2 31
-14 25 3 29 17 4z m42 1 c0 -8 -4 -12 -10 -9 -5 3 -10 10 -10 16 0 5 5 9 10 9
6 0 10 -7 10 -16z m2295 -24 c18 -19 17 -20 -3 -20 -15 0 -22 6 -22 20 0 11 2
20 3 20 2 0 12 -9 22 -20z m34 -95 c17 -10 13 -35 -6 -35 -17 0 -53 27 -53 40
0 8 44 5 59 -5z m-2026 -439 c24 -6 27 -11 27 -49 0 -56 -22 -127 -43 -139
-15 -8 -17 -3 -17 32 0 38 -1 40 -25 34 -23 -6 -25 -3 -25 26 0 17 4 29 8 26
5 -3 8 3 8 12 0 60 4 73 22 69 9 -3 29 -8 45 -11z m1551 -135 c-2 -9 -6 -34
-10 -56 l-7 -40 -8 40 c-4 22 -8 52 -8 68 -1 24 1 26 18 16 10 -7 17 -19 15
-28z m-1614 -61 c0 -5 -2 -10 -4 -10 -3 0 -8 5 -11 10 -3 6 -1 10 4 10 6 0 11
-4 11 -10z m32 -242 c-4 -179 10 -316 39 -391 23 -59 23 -59 0 -74 -22 -14
-54 -2 -104 39 -45 37 -93 225 -71 282 3 9 10 13 15 10 5 -3 9 4 9 15 0 10 -4
21 -9 23 -5 2 -10 17 -11 33 -3 45 -1 57 9 50 12 -7 47 40 91 118 17 31 33 57
33 57 1 0 0 -73 -1 -162z m-94 78 c-13 -16 -18 -1 -11 35 l7 34 6 -30 c4 -16
3 -34 -2 -39z m41 -585 c14 -10 35 -21 46 -23 11 -1 23 -10 26 -18 4 -11 11
-5 24 19 16 33 18 34 31 16 7 -10 11 -28 8 -41 -3 -12 -1 -25 5 -28 16 -10 13
-26 -4 -26 -8 0 -15 4 -15 9 0 5 -20 11 -45 13 -25 2 -45 0 -45 -4 0 -3 21
-14 48 -23 72 -26 92 -37 92 -52 0 -18 0 -18 -84 22 -73 36 -77 40 -112 123
-16 37 -12 39 25 13z m51 -181 c16 -31 56 -67 105 -96 50 -29 52 -43 5 -36
-20 3 -41 17 -58 38 -32 40 -42 42 -43 12 0 -22 -1 -22 -8 -3 -28 68 -29 137
-1 85z m70 -187 c47 -12 110 -44 105 -53 -3 -5 -12 -7 -20 -3 -8 3 -15 0 -15
-6 0 -6 4 -11 9 -11 12 0 41 -29 41 -41 0 -23 -32 -20 -55 5 -17 18 -31 25
-44 21 -14 -4 -24 8 -49 63 -18 38 -32 77 -31 88 1 12 7 6 17 -19 11 -25 26
-40 42 -44z m114 -206 c20 -9 30 -21 32 -37 1 -14 5 -43 9 -65 l7 -40 -32 34
c-24 25 -30 39 -26 57 5 17 3 22 -7 18 -8 -3 -21 6 -31 20 -15 25 -15 26 1 26
10 -1 31 -6 47 -13z m1273 -420 c-6 -20 -26 -19 -24 1 1 12 6 18 14 15 8 -3
12 -10 10 -16z"/>
<path d="M1942 3880 c0 -14 2 -19 5 -12 2 6 2 18 0 25 -3 6 -5 1 -5 -13z"/>
<path d="M2045 3840 c-7 -22 -35 -26 -53 -8 -9 9 -12 7 -12 -10 0 -13 6 -22
15 -22 28 0 65 24 65 42 0 24 -7 23 -15 -2z"/>
<path d="M2121 3844 c0 -11 3 -14 6 -6 3 7 2 16 -1 19 -3 4 -6 -2 -5 -13z"/>
<path d="M2312 3060 c0 -19 2 -27 5 -17 2 9 2 25 0 35 -3 9 -5 1 -5 -18z"/>
<path d="M2200 2495 c0 -8 5 -15 10 -15 6 0 10 7 10 15 0 8 -4 15 -10 15 -5 0
-10 -7 -10 -15z"/>
<path d="M3140 5158 c-15 -21 -17 -28 -6 -19 16 13 41 51 33 51 -2 0 -14 -15
-27 -32z"/>
<path d="M2758 5119 c5 -13 15 -25 22 -27 7 -3 10 0 6 7 -4 6 -1 11 8 11 8 0
18 -4 21 -10 7 -12 25 -13 25 -2 0 4 -17 14 -37 22 -21 8 -41 16 -45 18 -5 2
-4 -7 0 -19z"/>
<path d="M2070 4995 c-14 -16 -5 -35 16 -35 15 0 20 35 5 44 -5 3 -14 -1 -21
-9z"/>
<path d="M2315 4900 c-8 -14 13 -40 32 -40 20 0 12 44 -9 48 -9 2 -19 -2 -23
-8z"/>
<path d="M1383 4874 c-6 -17 14 -36 32 -31 6 2 11 13 13 25 3 17 -2 22 -18 22
-11 0 -23 -7 -27 -16z"/>
<path d="M1912 4738 c2 -13 8 -23 13 -23 6 0 11 10 13 23 2 15 -2 22 -13 22
-11 0 -15 -7 -13 -22z"/>
<path d="M1652 4678 c-19 -19 -14 -73 10 -103 54 -69 101 -113 114 -108 22 8
17 20 -27 68 -23 25 -39 48 -36 52 10 9 33 -14 72 -73 27 -40 42 -54 60 -54
13 0 27 5 30 10 3 6 -13 44 -37 86 -59 105 -146 162 -186 122z"/>
<path d="M1966 4584 c-8 -20 1 -34 20 -34 8 0 14 10 14 25 0 28 -24 34 -34 9z"/>
<path d="M1270 4524 c-9 -10 -10 -18 -2 -26 12 -12 32 -2 32 17 0 21 -16 26
-30 9z"/>
<path d="M1501 4511 c-8 -5 -11 -16 -8 -25 10 -25 27 -19 27 9 0 28 0 28 -19
16z"/>
<path d="M1363 4344 c-24 -25 -43 -53 -41 -61 4 -20 161 -103 191 -102 12 1
41 -2 64 -6 36 -6 43 -5 53 14 6 12 8 27 3 34 -15 25 -199 167 -216 167 -6 0
-30 -21 -54 -46z m87 -34 c27 -21 16 -26 -25 -10 -14 5 -23 14 -20 20 9 14 16
12 45 -10z"/>
<path d="M1326 4213 c-12 -12 -6 -43 9 -43 8 0 15 9 15 19 0 21 -13 34 -24 24z"/>
<path d="M1426 4001 c-8 -12 3 -41 15 -41 12 0 12 37 0 45 -5 3 -12 1 -15 -4z"/>
<path d="M2080 3320 c0 -5 5 -10 11 -10 5 0 7 5 4 10 -3 6 -8 10 -11 10 -2 0
-4 -4 -4 -10z"/>
<path d="M2070 3270 c0 -5 5 -10 10 -10 6 0 10 5 10 10 0 6 -4 10 -10 10 -5 0
-10 -4 -10 -10z"/>
<path d="M3955 2430 c-11 -18 34 -49 112 -73 43 -14 93 -31 110 -38 23 -9 36
-10 43 -3 28 28 -20 60 -154 100 -88 27 -102 28 -111 14z"/>
<path d="M5066 815 c-40 -40 -7 -89 57 -83 24 2 34 9 41 31 7 19 7 34 0 45
-15 23 -77 28 -98 7z"/>
<path d="M4917 802 c-29 -32 -22 -60 18 -71 19 -5 44 -7 55 -4 24 6 37 49 23
72 -15 24 -75 26 -96 3z"/>
<path d="M5216 798 c-14 -13 -27 -36 -28 -53 -3 -29 -1 -30 41 -33 54 -4 81
17 81 63 0 50 -50 62 -94 23z"/>
</g>
</svg>
