<svg width="1186" height="2157" viewBox="0 0 1186 2157" fill="none" xmlns="http://www.w3.org/2000/svg">
<path d="M39.1337 6.32467C22.3377 9.40964 6.57008 14.5513 3.48511 16.9507C-1.65651 21.064 -1.31373 21.7495 5.88453 23.8062C10.3406 24.8345 19.2527 23.4634 25.4227 21.064C36.3915 16.6079 62.4423 16.9507 75.4678 22.0923C80.2666 24.1489 81.2949 23.4634 79.2383 20.0357C77.1816 16.6079 79.2383 16.2651 88.836 17.979C103.233 20.7212 108.717 15.2368 99.8048 7.01022C96.377 3.58247 94.6631 2.89692 95.6915 4.95357C99.8048 12.1518 56.2724 16.6079 51.8163 9.75241C50.4452 7.69577 54.5585 6.32467 61.7568 6.32467C68.2695 6.32467 74.7822 4.6108 75.8105 2.89692C78.5527 -1.55914 75.125 -1.21637 39.1337 6.32467Z" fill="black" fill-opacity="0.96"/>
<path d="M49.759 32.7182C49.4163 34.4321 49.4163 36.4887 49.759 37.8598C49.759 39.5737 48.7307 40.602 46.6741 40.602C44.9602 40.602 43.2463 38.8881 43.2463 37.1743C43.2463 35.1176 41.8752 33.7465 39.8186 33.7465C34.3342 33.7465 35.7053 39.5737 41.8752 41.9731C44.9602 43.3442 49.4163 42.3159 52.1585 40.2592C54.5579 38.2026 61.7561 36.8315 67.9261 37.1743C84.0365 38.2026 87.1215 37.1743 79.2376 33.7465C70.6683 29.976 50.1018 29.2905 49.759 32.7182Z" fill="black" fill-opacity="0.96"/>
<path d="M63.8146 126.296C55.588 131.437 61.4151 132.466 70.6701 127.324C75.4689 124.925 76.84 122.868 74.0978 122.868C71.3556 122.868 66.5568 124.239 63.8146 126.296Z" fill="black" fill-opacity="0.96"/>
<path d="M86.4363 134.865C89.1785 147.548 91.2351 150.29 91.2351 141.378C91.2351 137.95 89.5212 132.466 87.8074 129.724C85.0652 125.953 84.7224 127.324 86.4363 134.865Z" fill="black" fill-opacity="0.96"/>
<path d="M130.654 136.579C131.682 138.293 133.396 140.007 134.425 140.007C135.11 140.007 135.796 138.293 135.796 136.579C135.796 134.522 134.082 133.151 132.025 133.151C130.311 133.151 129.626 134.522 130.654 136.579Z" fill="black" fill-opacity="0.96"/>
<path d="M805.178 673.552C781.526 699.26 765.759 636.189 769.529 645.102C771.243 648.529 771.929 652.985 771.586 655.385C770.558 662.24 756.504 782.742 769.529 776.915C787.696 769.374 784.611 763.547 796.951 776.915C808.263 789.597 802.093 791.466 824.373 786.325C831.571 784.611 853.109 788.912 853.109 790.626C853.109 792.34 940.574 774.328 944.344 778.098C952.914 786.667 898.413 692.405 860.365 683.835C843.226 680.065 818.546 675.266 805.178 673.552C779.813 669.781 765.073 660.869 747.249 638.246C740.393 629.677 740.393 628.648 745.192 621.45C751.02 613.224 752.733 581.003 747.592 581.003C746.221 581.003 745.535 584.43 746.221 588.887C747.249 593.343 744.85 605.34 741.079 616.308C737.651 626.935 735.937 634.818 737.309 633.79C739.022 632.762 741.079 635.847 742.107 640.303C743.479 645.444 738.68 662.583 727.368 691.033C718.113 714.342 709.544 737.994 708.173 743.478C706.802 749.305 703.717 755.475 701.317 757.189C698.918 759.245 685.55 774.67 671.496 791.809C637.561 832.942 603.284 868.933 598.142 868.933C596.085 868.933 591.287 872.018 587.859 875.789C578.604 886.072 575.176 884.015 577.233 869.619C578.261 862.763 578.947 855.908 579.289 854.88C579.289 853.851 582.374 849.395 586.145 844.939C589.915 840.483 593.343 834.313 593.343 830.543C594.029 822.316 594.029 821.63 602.941 802.435C610.139 785.639 610.825 776.042 603.284 789.752C599.513 797.293 590.944 800.036 594.714 792.495C596.085 790.438 594.372 791.466 591.287 795.237C588.202 799.007 584.774 805.863 583.746 810.662C582.717 815.461 579.632 822.316 577.233 826.087C575.176 829.857 572.091 838.084 570.72 844.254C569.006 853.166 567.292 854.88 564.207 851.795C558.38 845.968 559.066 748.277 565.236 740.736C567.978 737.651 569.006 734.223 567.635 732.852C566.607 731.823 560.437 736.622 553.924 744.163C547.411 751.362 540.899 756.503 539.528 754.789C538.157 753.418 540.899 740.736 546.04 726.682C550.839 712.628 554.267 700.974 553.239 700.974C548.783 700.974 425.726 757.189 417.5 763.016C412.358 766.787 405.503 774.67 402.075 780.155C396.591 789.41 394.534 790.438 383.222 789.067C376.367 788.039 369.169 789.067 367.112 791.124C360.942 797.293 362.313 843.225 368.826 848.71C373.625 852.48 374.996 852.48 378.766 847.339C383.908 840.14 387.336 839.797 387.336 846.31C387.336 854.537 326.322 876.132 291.359 880.588C235.487 887.786 200.866 893.613 195.382 897.384C189.898 900.469 186.47 900.126 176.529 894.984C166.932 889.843 163.847 889.157 159.391 892.928C152.192 899.098 152.535 900.126 168.988 924.12C189.898 954.97 199.153 958.74 252.968 959.426C294.101 959.769 298.557 959.083 331.806 948.114C351.002 941.602 367.455 937.146 368.14 937.831C371.225 940.916 365.741 958.397 361.97 957.026C359.571 955.998 349.288 957.369 339.005 959.769C328.721 962.511 311.583 966.281 300.957 968.338C287.931 971.08 281.076 973.822 281.076 977.25C281.076 980.678 276.62 982.049 264.28 982.049C250.226 982.049 245.427 980.335 235.829 971.766C229.659 965.939 223.489 961.483 222.461 961.483C221.09 961.483 215.263 965.939 209.779 971.766C201.552 979.992 195.382 982.392 177.9 984.448L155.963 987.191V1000.9C155.963 1011.18 157.334 1014.61 161.105 1014.27C164.532 1013.93 166.246 1017.01 166.246 1022.5C166.246 1027.3 168.303 1031.75 170.702 1032.78C173.787 1033.81 174.473 1031.75 172.759 1025.24C171.388 1019.75 172.073 1016.33 174.13 1016.33C176.187 1016.33 178.243 1019.75 178.929 1023.87C179.614 1028.32 182.699 1032.09 186.813 1032.78C190.583 1033.47 196.41 1036.55 199.495 1039.29C204.98 1044.09 206.351 1044.09 214.577 1038.95C223.147 1033.12 235.487 1033.81 231.373 1039.98C230.345 1041.69 231.031 1044.09 233.087 1045.46C235.144 1046.83 235.829 1048.55 235.144 1049.92C234.458 1051.29 236.172 1055.4 238.914 1059.17C244.056 1065.69 244.056 1065.69 241.999 1056.43C240.628 1051.29 240.971 1047.18 242.685 1047.18C244.399 1047.18 245.77 1044.78 245.77 1042.03C245.77 1039.29 244.399 1036.89 242.685 1036.89C238.572 1036.89 239.257 1028.67 243.713 1024.21C250.226 1017.7 257.081 1023.18 257.081 1034.84C257.081 1040.66 259.481 1049.92 262.223 1055.4C268.393 1067.06 269.079 1081.45 263.251 1081.45C261.195 1081.45 255.368 1078.03 250.911 1073.57C242.685 1066.37 242.685 1066.37 246.113 1073.23C250.911 1082.14 266.336 1098.94 277.305 1106.13C283.132 1110.25 285.874 1116.07 286.903 1126.7C287.588 1134.93 289.645 1145.55 291.359 1150.69C293.415 1156.52 293.073 1160.29 291.016 1160.29C284.503 1160.29 288.274 1168.18 303.356 1186C312.268 1196.28 318.095 1206.22 317.067 1208.97C315.01 1214.11 343.803 1232.27 353.744 1232.27C357.172 1232.27 358.2 1235.02 357.172 1242.21C356.143 1250.1 354.429 1251.81 349.973 1250.1C345.86 1248.73 345.174 1249.07 348.259 1253.18C349.973 1255.93 351.687 1264.84 351.687 1273.41C351.344 1281.98 352.373 1289.52 353.744 1290.55C355.8 1292.26 359.228 1326.19 359.571 1351.22C359.914 1359.44 361.628 1362.53 365.741 1362.53C368.826 1362.53 370.54 1363.56 369.169 1364.59C368.14 1365.96 369.169 1369.04 371.911 1371.78C378.081 1377.95 378.081 1386.52 371.911 1444.79C365.398 1505.81 365.398 1571.96 372.254 1614.47C375.339 1633.32 378.081 1652.17 378.424 1656.29C379.109 1660.74 380.48 1665.2 381.509 1666.57C385.279 1670.34 384.251 1681.31 380.137 1681.31C378.081 1681.31 377.052 1683.71 378.424 1686.45C379.452 1689.19 378.424 1691.59 376.367 1691.59C373.968 1691.59 373.625 1695.36 375.339 1702.56C376.71 1708.73 378.081 1716.96 378.766 1720.73C381.166 1735.47 401.389 1802.31 407.559 1816.02C410.987 1823.9 416.472 1836.59 419.214 1844.47C422.299 1852.01 427.783 1863.67 431.554 1870.18C435.324 1876.69 441.837 1888 445.95 1895.54C450.063 1903.08 454.177 1909.94 455.548 1910.97C456.576 1912 460.689 1918.85 464.46 1926.39C468.23 1933.93 473.372 1942.16 475.772 1944.9C478.171 1947.3 481.256 1953.81 482.284 1959.3C483.313 1964.78 486.398 1969.24 489.14 1969.24C491.882 1969.24 493.253 1970.61 492.225 1971.98C491.196 1973.7 492.568 1978.84 495.31 1983.98C507.992 2008.66 531.301 2088.87 533.358 2114.92C534.386 2130 536.1 2143.03 536.785 2143.71C537.471 2144.74 602.598 2147.14 681.436 2149.54C759.932 2151.94 840.484 2154.34 860.365 2155.02L896.356 2156.05L897.041 2147.48C897.041 2142.68 897.727 2120.4 898.07 2097.78C898.413 2071.39 899.784 2059.73 901.497 2065.22C903.897 2072.76 904.24 2072.07 904.582 2060.07C904.582 2050.13 903.897 2047.74 901.497 2051.51C899.098 2055.28 898.07 2053.56 898.07 2044.65C898.07 2036.42 899.098 2034.02 901.155 2037.45C903.554 2041.22 904.582 2040.54 905.611 2034.37C906.296 2028.88 910.41 2025.45 918.636 2022.71C936.803 2016.89 942.63 1995.98 946.401 1922.97C948.115 1890.74 951.543 1828.36 954.628 1784.14C957.37 1739.92 959.769 1676.51 959.769 1643.26C959.769 1596.64 960.797 1580.53 964.911 1572.99C969.367 1564.42 969.367 1563.05 964.911 1560.31C960.797 1557.91 959.769 1546.6 960.112 1493.47C960.112 1449.25 961.14 1431.77 963.54 1437.6C965.254 1442.05 971.423 1451.65 977.251 1458.85L987.877 1472.22H979.307C966.282 1472.22 964.225 1482.5 975.537 1491.41C980.336 1495.53 988.562 1508.55 993.704 1520.55C1008.44 1555.85 1021.13 1549.68 1010.84 1511.98C1008.1 1502.72 1008.1 1497.92 1010.84 1495.18C1017.01 1489.01 1014.96 1479.76 1003.99 1464.33L993.361 1449.94L1003.64 1448.91C1012.56 1447.88 1014.27 1446.17 1015.64 1435.2C1017.36 1419.43 1016.67 1418.06 1001.24 1411.2C990.962 1406.4 989.933 1405.38 996.103 1404.35C1000.9 1403.66 1004.33 1400.23 1005.36 1394.75C1006.04 1390.29 1005.7 1386.52 1004.67 1386.52C1003.64 1386.18 997.132 1381.38 990.619 1375.55L978.622 1365.27L992.675 1367.33C1006.04 1369.38 1007.07 1368.7 1008.79 1359.79C1009.81 1354.64 1009.13 1349.85 1006.73 1349.16C999.874 1346.76 983.421 1326.54 987.534 1325.17C989.591 1324.48 997.132 1326.88 1004.67 1329.97C1015.3 1335.11 1018.73 1335.11 1023.18 1331.68C1029.01 1326.88 1030.04 1307 1024.9 1297.06C1022.84 1293.29 1022.5 1290.55 1023.87 1290.89C1033.81 1292.6 1036.21 1290.2 1029.7 1285.06C1026.27 1282.32 1024.9 1280.61 1026.95 1281.63C1029.35 1283.01 1031.41 1279.58 1032.44 1273.41C1033.47 1267.92 1032.44 1262.44 1030.38 1261.75C1027.98 1260.72 1028.32 1260.04 1031.07 1260.04C1037.24 1259.7 1036.21 1250.1 1029.35 1246.33C1025.92 1244.61 1023.87 1242.56 1024.9 1241.53C1032.78 1234.67 1071.51 1208.28 1073.57 1208.28C1074.94 1208.28 1076.31 1210.68 1076.31 1213.42C1076.31 1216.16 1078.03 1218.56 1080.08 1218.56C1082.14 1218.56 1083.17 1216.16 1082.14 1213.42C1080.43 1209.65 1083.51 1210.34 1095.17 1215.82C1112.99 1224.73 1112.3 1229.19 1092.77 1227.48C1084.88 1226.79 1074.94 1227.48 1070.49 1229.19C1059.17 1233.3 1059.86 1249.07 1072.2 1260.72C1084.2 1272.38 1096.54 1273.06 1096.19 1262.1C1095.85 1257.98 1094.14 1252.5 1092.42 1250.1C1090.02 1247.01 1091.05 1245.99 1096.54 1245.99C1101.68 1245.99 1103.73 1248.04 1103.73 1254.21C1103.73 1264.84 1116.07 1280.26 1124.99 1280.26C1130.47 1280.26 1131.5 1278.55 1130.47 1272.04C1127.39 1256.27 1132.18 1255.24 1156.86 1266.21C1184.63 1278.89 1186 1279.23 1186 1268.61C1186 1263.81 1182.57 1258.33 1177.09 1254.55C1171.95 1251.47 1169.2 1247.01 1170.23 1244.27C1171.26 1241.53 1167.83 1236.39 1161.66 1231.93L1151.38 1224.73L1159.95 1218.22C1169.2 1211.02 1168.52 1206.57 1155.84 1190.46C1151.72 1185.66 1121.56 1183.6 1127.73 1180.17C1136.64 1175.72 1120.87 1156.18 1112.3 1147.61C1105.79 1141.1 1104.08 1153.44 1110.59 1151.72C1119.5 1149.32 1111.96 1141.44 1100.31 1136.3H1108.88L1105.45 1131.5C1118.47 1129.44 1113.33 1130.47 1105.45 1122.59C1096.54 1113.67 1101.68 1162.69 1110.59 1160.29C1121.56 1157.21 1118.13 1098.46 1105.11 1098.46C1099.96 1098.46 1084.54 1082.82 1081.11 1081.45C1075.97 1079.74 1075.63 1113.33 1084.54 1110.59C1099.28 1105.45 1103.73 1086.6 1089.68 1080.08C1077.34 1074.26 1079.05 1104.08 1094.82 1100.31C1106.48 1097.56 1105.45 1065 1093.45 1050.95C1085.91 1042.38 1039.64 990.618 1039.98 980.335C1040.32 972.794 1029.7 999.873 1031.41 997.474C1034.84 991.989 1095.85 1030.38 1087.97 1027.64C1081.8 1025.92 1098.25 1109.25 1103.39 1103.43C1107.5 1098.97 1095.85 1057.8 1093.45 1050.95C1091.74 1046.15 1098.25 1033.47 1087.85 1027.98C1084.77 1025.92 1079.74 989.933 1083.17 987.876C1086.25 985.819 1071.17 960.111 1062.94 952.228C1056.77 945.715 1044.43 898.412 1045.46 895.67C1046.49 892.928 1043.75 885.386 1042.04 881.959C1039.64 877.16 1011.53 877.16 1014.61 872.361C1019.75 863.792 1011.87 868.933 995.76 863.792C987.877 861.049 1011.19 866.436 1011.19 861.98C1011.19 858.552 1006.04 844.939 1007.76 844.939C1009.81 844.939 1045.46 898.412 1045.46 895.67C1045.46 889.843 1046.15 879.217 1042.04 881.959C1040.32 882.644 1025.58 851.795 1028.32 846.653C997.474 827.8 1009.13 849.395 1000.9 844.939C993.018 840.826 996.625 799.693 1007.25 795.237C952.914 822.659 1007.76 892.927 1028.32 846.653C1013.93 844.254 1007.76 783.24 994.732 753.418C985.477 733.537 993.018 753.761 985.477 733.537C982.392 724.968 970.738 716.741 967.996 714.685C891.214 700.974 980.678 741.078 985.477 733.537C988.219 729.424 954.628 706.801 966.282 714.685C977.936 722.911 981.021 736.965 985.477 733.537C991.99 728.053 972.795 723.254 966.282 714.685C963.54 711.257 985.477 737.993 985.477 733.537C985.477 729.081 970.052 718.455 966.282 714.685C960.455 708.515 874.418 679.036 860.365 683.835C832.257 692.747 900.469 699.432 898.07 692.233C879.272 686.924 872.362 680.407 860.365 683.835C844.254 688.291 887.786 695.832 887.786 688.634C946.058 747.248 917.608 688.809 904.925 692.923C898.755 694.637 904.925 693.776 887.786 688.634C859.02 681.92 865.163 691.376 860.365 683.835C906.094 719.896 850.081 767.815 843.226 760.617L805.178 688.634V673.552ZM917.951 697.203C927.548 700.288 917.951 703.031 917.951 697.203C911.781 695.49 905.954 694.118 904.925 693.776C901.155 693.433 912.124 697.203 917.951 697.203C917.951 693.09 921.378 696.861 917.951 697.203ZM740.393 817.517C740.393 819.231 739.022 820.945 736.966 820.945C735.252 820.945 733.538 819.231 733.538 817.517C733.538 815.461 735.252 814.089 736.966 814.089C739.022 814.089 740.393 815.461 740.393 817.517ZM988.905 868.933C994.047 873.389 1002.62 873.732 1006.04 875.789C1011.53 879.217 1000.56 877.16 990.619 881.959H1042.04L1035.18 866.534C1025.58 844.596 973.137 856.593 988.905 868.933ZM371.225 887.443C374.31 889.843 377.052 896.013 377.052 900.811C377.052 908.695 373.968 910.409 347.231 920.35C290.673 940.573 279.362 942.63 238.572 938.859C197.439 934.746 186.813 929.604 198.124 918.979C201.895 915.894 214.235 911.78 226.232 909.724C245.084 906.639 248.169 906.981 251.94 912.466C256.396 918.293 257.081 918.293 263.937 910.752C272.506 901.84 292.73 900.126 296.158 908.352C298.9 915.551 304.042 914.865 306.441 907.324C307.812 903.896 314.325 899.098 321.18 897.041C332.149 893.613 334.206 893.956 338.319 899.783C344.832 909.038 348.945 908.352 351.687 897.041C353.744 888.814 358.885 882.644 363.342 882.644C364.37 882.987 367.798 885.044 371.225 887.443ZM832.257 884.701C829.515 887.443 791.81 896.013 782.555 896.355C770.9 896.355 772.957 890.871 785.982 886.758C797.637 882.987 835.342 881.273 832.257 884.701ZM983.763 897.041C986.506 901.497 1013.58 914.18 1009.47 911.78C1007.41 910.409 990.619 938.517 990.619 940.573C990.619 942.63 1027.64 912.808 1034.84 916.922L920.35 966.624L1042.04 920.35C1036.55 921.035 1035.18 936.803 1029.7 940.573C1024.55 944.344 1058.49 941.259 1057.8 940.573C1056.09 937.831 1045.46 900.469 1045.46 897.041C1045.46 892.242 981.021 892.585 983.763 897.041ZM1068.77 967.995C1068.77 969.024 1046.15 997.474 1042.04 1000.9C1035.52 1006.04 1059.52 1025.58 1062.94 1032.78C1068.43 1044.78 1099.96 1054.03 1083.17 987.876C1078.03 985.134 1072.54 977.593 1068.77 967.995C1068.77 966.624 1079.74 967.652 1068.77 967.995ZM391.792 984.448C393.163 985.477 392.477 988.562 390.421 991.304C386.307 996.103 389.05 997.131 401.389 996.103C404.474 995.76 408.588 997.817 410.987 1000.56C414.072 1004.33 413.729 1006.39 409.959 1010.5C407.217 1013.24 405.846 1016.33 406.874 1017.7C408.245 1018.73 407.559 1019.75 405.846 1020.1C391.792 1021.13 380.137 1023.87 371.911 1027.98C366.426 1030.72 360.599 1032.09 358.543 1031.07C356.486 1029.69 356.486 1028.32 359.228 1027.3C364.713 1025.58 360.942 1019.75 354.429 1019.75C351.687 1019.75 349.631 1022.84 349.631 1026.95C349.631 1031.07 347.917 1033.47 345.517 1032.44C343.118 1031.75 341.061 1028.32 341.061 1024.55C341.061 1020.1 339.005 1018.38 333.863 1019.07C330.092 1019.41 323.237 1018.38 318.438 1016.67C310.554 1013.58 310.554 1013.24 321.18 1013.24C332.492 1012.9 341.061 1006.04 330.435 1006.04C317.067 1006.04 332.149 999.188 356.486 994.046C370.54 990.961 382.88 987.191 383.222 985.477C384.594 981.363 388.707 981.021 391.792 984.448ZM427.783 987.876C424.355 988.562 418.185 988.562 414.072 987.876C409.616 987.191 412.358 986.505 419.899 986.505C427.44 986.162 430.868 986.848 427.783 987.876ZM291.359 997.474C295.129 1001.93 292.044 1002.62 265.994 1002.62C238.914 1002.62 232.744 1000.9 238.914 994.732C239.943 993.36 251.597 992.332 263.937 992.332C280.39 992.332 288.274 993.703 291.359 997.474ZM181.328 997.131C177.215 1000.56 161.105 1002.27 161.105 999.188C161.105 997.474 165.903 995.76 172.073 995.76C177.9 995.76 182.014 996.446 181.328 997.131ZM420.585 1006.73C419.557 1009.47 418.528 1008.44 418.528 1004.67C418.185 1000.9 419.214 998.845 420.242 1000.22C421.27 1001.24 421.613 1004.33 420.585 1006.73ZM455.548 1004.67C461.375 1006.04 466.174 1008.44 466.174 1010.16C466.174 1013.93 445.607 1010.5 440.809 1005.7C436.695 1001.93 440.466 1001.93 455.548 1004.67ZM233.087 1019.75C233.087 1021.47 231.716 1023.18 229.659 1023.18C227.946 1023.18 226.232 1021.47 226.232 1019.75C226.232 1017.7 227.946 1016.33 229.659 1016.33C231.716 1016.33 233.087 1017.7 233.087 1019.75ZM305.07 1019.75C305.07 1021.47 303.699 1023.18 301.642 1023.18C299.928 1023.18 298.214 1021.47 298.214 1019.75C298.214 1017.7 299.928 1016.33 301.642 1016.33C303.699 1016.33 305.07 1017.7 305.07 1019.75ZM291.359 1038.61C292.73 1052.66 294.101 1055.4 299.243 1054.72C302.328 1054.03 305.07 1055.4 305.07 1057.46C305.07 1059.17 306.784 1060.89 308.498 1060.89C310.554 1060.89 311.925 1054.37 311.925 1046.15C311.925 1029.01 316.039 1021.47 323.58 1024.21C327.007 1025.58 329.064 1031.07 329.407 1039.29C329.75 1046.49 331.121 1056.77 332.492 1062.6C334.891 1072.2 335.234 1072.2 335.577 1064.31C336.262 1051.97 341.061 1045.81 348.259 1048.55C351.687 1049.92 355.458 1048.89 356.829 1046.49C358.543 1043.75 362.999 1045.12 373.282 1051.97C381.166 1057.46 387.336 1063.29 387.336 1065C387.336 1068.43 384.251 1066.71 369.511 1056.77C357.857 1048.89 355.8 1048.89 357.172 1058.14C357.857 1062.6 360.257 1065.69 362.999 1065C371.911 1062.94 380.137 1068.09 383.565 1078.37C387.678 1090.37 384.936 1099.62 378.081 1097.22C372.939 1095.16 354.429 1103.73 347.917 1110.93C343.118 1116.42 316.381 1120.19 313.639 1115.73C312.611 1114.02 305.755 1112.3 298.9 1111.96C291.359 1111.96 288.274 1110.93 291.359 1109.56C294.101 1108.19 296.843 1102.36 297.529 1096.88C298.214 1091.05 297.186 1088.31 295.815 1090.37C294.444 1092.42 290.331 1093.79 286.903 1093.11C279.019 1092.08 274.906 1088.31 281.418 1088.31C284.161 1088.31 282.789 1085.91 278.333 1082.82C271.135 1078.03 270.792 1075.28 271.821 1052.32C273.535 1024.55 275.591 1018.73 283.818 1020.44C287.931 1021.13 289.988 1026.27 291.359 1038.61ZM1036.55 1018.04C1043.41 1023.52 1044.78 1042.03 1038.26 1042.03C1035.87 1042.03 1045.12 1043.06 1039.98 1047.18L1093.45 1050.95L1089.68 1040.32C1087.62 1035.18 1086.94 1030.38 1087.97 1027.64C1090.37 1021.81 1028.67 1012.21 1036.55 1018.04ZM435.324 1033.12C435.324 1036.89 433.953 1041.01 431.896 1042.03C429.84 1043.41 428.469 1040.32 428.469 1035.52C428.469 1030.72 430.183 1026.61 431.896 1026.61C433.953 1026.61 435.324 1029.69 435.324 1033.12ZM303.356 1043.41C304.384 1045.12 303.699 1047.52 301.642 1048.89C299.928 1049.92 298.214 1048.55 298.214 1045.8C298.214 1039.64 300.271 1038.61 303.356 1043.41ZM1086.25 1119.16C1086.25 1120.87 1104.25 1103.43 1102.19 1103.43C1050.77 1115.42 1073.23 1048.89 1074.26 1047.18C1075.28 1045.12 1059.52 1088.84 1060.54 1088.84C1061.23 1088.84 1086.25 1117.1 1086.25 1119.16ZM1086.25 1081.45C1090.71 1084.88 1074.31 1096.88 1073.28 1096.88C1060.94 1099.62 1107.16 1115.05 1107.16 1112.65C1107.16 1110.93 1104.42 1106.51 1103.39 1103.43C1100.65 1095.89 1076.66 1073.23 1086.25 1081.45ZM380.823 1132.53C370.54 1166.8 367.455 1167.83 345.517 1144.87C335.577 1134.24 326.665 1123.96 325.979 1121.9C324.951 1118.47 354.087 1133.9 361.628 1140.41C367.455 1145.55 369.169 1143.5 377.052 1121.56C387.336 1093.79 390.078 1102.02 380.823 1132.53ZM318.095 1152.41C320.495 1156.52 326.322 1158.24 337.291 1158.58C355.8 1159.26 359.228 1161.66 354.429 1169.89C348.945 1178.8 327.007 1179.49 321.866 1171.26C319.466 1167.49 315.353 1165.09 312.268 1166.12C307.812 1167.49 307.812 1167.15 311.583 1164.41C315.01 1162.01 315.353 1159.61 312.268 1153.78C307.469 1145.21 313.296 1143.84 318.095 1152.41ZM332.492 1152.07C332.492 1154.81 331.121 1156.18 329.064 1155.15C327.35 1154.12 325.636 1151.72 325.636 1149.67C325.636 1147.95 327.35 1146.58 329.064 1146.58C331.121 1146.58 332.492 1148.98 332.492 1152.07ZM1119.16 1160.29C1125.33 1166.8 1115.73 1139.04 1108.88 1139.04C1103.73 1139.04 1110.59 1165.09 1110.59 1160.29C1110.59 1156.52 1111.28 1153.44 1111.62 1153.44C1112.3 1153.44 1115.73 1156.52 1119.16 1160.29ZM1130.81 1192.86C1136.64 1196.28 1135.27 1204.85 1128.76 1204.85C1122.93 1204.85 1110.59 1195.6 1110.59 1191.14C1110.59 1188.4 1125.67 1189.43 1130.81 1192.86ZM436.352 1343.33C444.579 1345.39 445.607 1347.1 445.607 1360.13C445.607 1379.32 438.066 1403.66 430.868 1407.77C425.726 1410.52 425.041 1408.8 425.041 1396.81C425.041 1383.78 424.698 1383.1 416.472 1385.15C408.588 1387.21 407.902 1386.18 407.902 1376.24C407.902 1370.41 409.273 1366.3 410.644 1367.33C412.358 1368.36 413.387 1366.3 413.387 1363.21C413.387 1342.65 414.758 1338.19 420.928 1339.56C424.013 1340.59 430.868 1342.3 436.352 1343.33ZM967.996 1389.61C967.31 1392.69 965.939 1401.26 964.568 1408.8L962.169 1422.51L959.426 1408.8C958.055 1401.26 956.684 1390.98 956.684 1385.49C956.341 1377.27 957.027 1376.58 962.854 1380.01C966.282 1382.41 968.681 1386.52 967.996 1389.61ZM414.758 1410.52C414.758 1412.23 414.072 1413.94 413.387 1413.94C412.358 1413.94 410.644 1412.23 409.616 1410.52C408.588 1408.46 409.273 1407.09 410.987 1407.09C413.044 1407.09 414.758 1408.46 414.758 1410.52ZM425.726 1493.47C424.355 1554.83 429.154 1601.79 439.095 1627.49C446.978 1647.72 446.978 1647.72 439.095 1652.86C431.554 1657.66 420.585 1653.54 403.446 1639.49C388.021 1626.81 371.568 1562.37 379.109 1542.83C380.137 1539.74 382.537 1538.37 384.251 1539.4C385.965 1540.43 387.336 1538.03 387.336 1534.26C387.336 1530.83 385.965 1527.06 384.251 1526.37C382.537 1525.69 380.823 1520.55 380.48 1515.06C379.452 1499.64 380.137 1495.53 383.565 1497.92C387.678 1500.32 399.676 1484.21 414.758 1457.48C420.585 1446.85 426.069 1437.94 426.069 1437.94C426.412 1437.94 426.069 1462.96 425.726 1493.47ZM393.506 1466.73C389.05 1472.22 387.336 1467.07 389.735 1454.74L392.135 1443.08L394.191 1453.36C395.562 1458.85 395.22 1465.02 393.506 1466.73ZM407.559 1667.26C412.358 1670.68 419.557 1674.45 423.327 1675.14C427.098 1675.48 431.211 1678.57 432.239 1681.31C433.61 1685.08 436.01 1683.02 440.466 1674.8C445.95 1663.48 446.636 1663.14 451.092 1669.31C453.491 1672.74 454.862 1678.91 453.834 1683.37C452.806 1687.48 453.491 1691.94 455.548 1692.96C461.032 1696.39 460.004 1701.88 454.177 1701.88C451.435 1701.88 449.035 1700.5 449.035 1698.79C449.035 1697.08 442.18 1695.02 433.61 1694.33C425.041 1693.65 418.185 1694.33 418.185 1695.71C418.185 1696.73 425.384 1700.5 434.639 1703.59C459.318 1712.5 466.174 1716.27 466.174 1721.41C466.174 1727.58 466.174 1727.58 437.381 1713.87C412.358 1701.53 410.987 1700.16 398.99 1671.71C393.506 1659.03 394.877 1658.34 407.559 1667.26ZM425.041 1729.3C430.525 1739.92 444.236 1752.26 461.032 1762.2C478.171 1772.14 478.857 1776.94 462.746 1774.54C455.891 1773.52 448.692 1768.72 442.865 1761.52C431.896 1747.81 428.469 1747.12 428.126 1757.4C428.126 1764.95 427.783 1764.95 425.384 1758.43C415.786 1735.12 415.443 1711.47 425.041 1729.3ZM449.035 1793.4C465.146 1797.51 486.74 1808.48 485.026 1811.56C483.998 1813.28 480.913 1813.96 478.171 1812.59C475.429 1811.56 473.029 1812.59 473.029 1814.65C473.029 1816.7 474.4 1818.42 476.114 1818.42C480.228 1818.42 490.168 1828.36 490.168 1832.47C490.168 1840.36 479.199 1839.33 471.315 1830.76C465.488 1824.59 460.689 1822.19 456.233 1823.56C451.435 1824.93 448.007 1820.82 439.437 1801.97C433.267 1788.94 428.469 1775.57 428.811 1771.8C429.154 1767.69 431.211 1769.74 434.639 1778.31C438.409 1786.88 443.551 1792.03 449.035 1793.4ZM488.111 1864.01C494.967 1867.09 498.395 1871.21 499.08 1876.69C499.423 1881.49 500.794 1891.43 502.165 1898.97L504.565 1912.68L493.596 1901.03C485.369 1892.46 483.313 1887.66 484.684 1881.49C486.398 1875.66 485.712 1873.95 482.284 1875.32C479.542 1876.35 475.086 1873.26 471.658 1868.46C466.517 1859.89 466.517 1859.55 472.001 1859.55C475.429 1859.89 482.627 1861.61 488.111 1864.01ZM924.463 2007.97C922.407 2014.83 915.551 2014.49 916.237 2007.63C916.58 2003.52 918.293 2001.46 921.036 2002.49C923.778 2003.52 925.149 2005.92 924.463 2007.97Z" fill="black" fill-opacity="0.96"/>
<path d="M376.423 1058.65C376.423 1063.45 377.108 1065.16 378.137 1062.76C378.822 1060.7 378.822 1056.59 378.137 1054.19C377.108 1052.13 376.423 1053.85 376.423 1058.65Z" fill="black" fill-opacity="0.96"/>
<path d="M411.732 1072.36C409.332 1079.9 399.734 1081.27 393.564 1075.1C390.479 1072.02 389.451 1072.7 389.451 1078.53C389.451 1082.98 391.508 1086.07 394.593 1086.07C404.19 1086.07 416.873 1077.84 416.873 1071.67C416.873 1063.45 414.474 1063.79 411.732 1072.36Z" fill="black" fill-opacity="0.96"/>
<path d="M437.781 1070.99C437.781 1074.76 438.809 1075.79 439.838 1073.04C440.866 1070.64 440.523 1067.56 439.495 1066.53C438.467 1065.16 437.438 1067.22 437.781 1070.99Z" fill="black" fill-opacity="0.96"/>
<path d="M503.249 1339.72C503.249 1346.23 503.935 1348.98 504.963 1345.55C505.648 1342.46 505.648 1336.98 504.963 1333.55C503.935 1330.47 503.249 1333.21 503.249 1339.72Z" fill="black" fill-opacity="0.96"/>
<path d="M464.861 1533.39C464.861 1536.13 466.575 1538.53 468.289 1538.53C470.346 1538.53 471.717 1536.13 471.717 1533.39C471.717 1530.65 470.346 1528.25 468.289 1528.25C466.575 1528.25 464.861 1530.65 464.861 1533.39Z" fill="black" fill-opacity="0.96"/>
<path d="M420.298 676.454C415.499 681.938 418.584 688.451 425.782 688.451C430.924 688.451 432.638 676.454 427.496 673.369C425.782 672.341 422.697 673.712 420.298 676.454Z" fill="black" fill-opacity="0.96"/>
<path d="M504.28 709.018C501.537 713.816 508.736 722.729 515.248 722.729C522.104 722.729 519.362 707.647 512.163 706.275C509.078 705.59 505.651 706.961 504.28 709.018Z" fill="black" fill-opacity="0.96"/>
<path d="M184.815 717.929C182.758 723.757 189.614 730.269 195.783 728.555C197.84 727.87 199.554 724.099 200.24 719.986C201.268 714.159 199.554 712.445 194.07 712.445C190.299 712.445 186.186 714.844 184.815 717.929Z" fill="black" fill-opacity="0.96"/>
<path d="M366.142 764.547C366.827 769.003 368.884 772.431 370.598 772.431C372.654 772.431 374.368 769.003 375.054 764.547C375.739 759.405 374.368 757.006 370.598 757.006C366.827 757.006 365.456 759.405 366.142 764.547Z" fill="black" fill-opacity="0.96"/>
<path d="M277.018 785.114C270.506 791.626 272.22 810.136 280.446 820.419C298.956 844.071 315.066 859.153 319.523 857.439C327.064 854.697 325.35 850.583 310.268 834.13C302.384 825.561 296.899 817.677 297.928 816.306C301.355 813.221 309.239 821.105 322.607 841.329C331.862 855.04 337.004 859.838 343.174 859.838C347.63 859.838 352.429 858.125 353.457 856.411C354.486 854.354 349.001 841.329 340.775 826.932C320.551 790.941 290.729 771.403 277.018 785.114Z" fill="black" fill-opacity="0.96"/>
<path d="M384.651 817.334C381.909 824.19 384.994 828.989 391.507 828.989C394.249 828.989 396.305 825.561 396.305 820.419C396.305 810.822 388.079 808.765 384.651 817.334Z" fill="black" fill-opacity="0.96"/>
<path d="M146.078 837.899C142.993 841.327 142.65 844.069 145.393 846.812C149.506 850.925 156.361 847.497 156.361 840.984C156.361 833.786 150.877 832.072 146.078 837.899Z" fill="black" fill-opacity="0.96"/>
<path d="M225.26 842.355C222.518 844.069 221.49 847.84 222.518 850.925C225.946 859.494 231.773 857.438 231.773 847.84C231.773 838.242 231.773 838.242 225.26 842.355Z" fill="black" fill-opacity="0.96"/>
<path d="M165.274 944.504C161.161 948.617 163.217 959.243 168.359 959.243C171.101 959.243 173.501 956.158 173.501 952.73C173.501 945.532 169.045 941.076 165.274 944.504Z" fill="black" fill-opacity="0.96"/>
<path d="M199.553 1017.17C196.81 1021.29 200.581 1031.23 204.694 1031.23C208.807 1031.23 208.807 1018.54 204.694 1015.8C202.98 1014.77 200.581 1015.46 199.553 1017.17Z" fill="black" fill-opacity="0.96"/>
<path d="M423.729 1250.6C423.729 1252.32 425.442 1254.03 427.499 1254.03C429.213 1254.03 429.898 1252.32 428.87 1250.6C427.842 1248.54 426.128 1247.17 425.1 1247.17C424.414 1247.17 423.729 1248.54 423.729 1250.6Z" fill="black" fill-opacity="0.96"/>
<path d="M420.301 1267.74C420.301 1269.45 422.015 1271.17 423.729 1271.17C425.785 1271.17 427.156 1269.45 427.156 1267.74C427.156 1265.68 425.785 1264.31 423.729 1264.31C422.015 1264.31 420.301 1265.68 420.301 1267.74Z" fill="black" fill-opacity="0.96"/>
</svg>
